<mxfile host="65bd71144e">
    <diagram id="C5RBs43oDa-KdzZeNtuy" name="Page-1">
        <mxGraphModel dx="1135" dy="790" grid="1" gridSize="10" guides="1" tooltips="1" connect="1" arrows="1" fold="1" page="1" pageScale="1" pageWidth="827" pageHeight="1169" math="0" shadow="0">
            <root>
                <mxCell id="WIyWlLk6GJQsqaUBKTNV-0"/>
                <mxCell id="WIyWlLk6GJQsqaUBKTNV-1" parent="WIyWlLk6GJQsqaUBKTNV-0"/>
                <mxCell id="8" style="edgeStyle=none;html=1;exitX=0.5;exitY=1;exitDx=0;exitDy=0;fillColor=none;entryX=0.505;entryY=0;entryDx=0;entryDy=0;entryPerimeter=0;" edge="1" parent="WIyWlLk6GJQsqaUBKTNV-1" source="6" target="11">
                    <mxGeometry relative="1" as="geometry">
                        <mxPoint x="223" y="110" as="targetPoint"/>
                    </mxGeometry>
                </mxCell>
                <mxCell id="1" value="" style="shape=curlyBracket;whiteSpace=wrap;html=1;rounded=1;" vertex="1" parent="WIyWlLk6GJQsqaUBKTNV-1">
                    <mxGeometry x="130" y="40" width="20" height="180" as="geometry"/>
                </mxCell>
                <UserObject label="JIRA dashboard" link="https://asiainspection.atlassian.net/jira/dashboards/12348" id="6">
                    <mxCell style="fontColor=#ffffff;fontStyle=4;rounded=1;overflow=hidden;spacing=10;fillColor=#008a00;strokeColor=#005700;" vertex="1" parent="WIyWlLk6GJQsqaUBKTNV-1">
                        <mxGeometry x="160" y="20" width="125" height="30" as="geometry"/>
                    </mxCell>
                </UserObject>
                <mxCell id="9" value="collect data from JIRA&amp;nbsp;" style="text;html=1;resizable=0;autosize=1;align=center;verticalAlign=middle;points=[];rounded=0;fillColor=#008a00;strokeColor=#005700;fontColor=#ffffff;" vertex="1" parent="WIyWlLk6GJQsqaUBKTNV-1">
                    <mxGeometry x="230" y="60" width="140" height="20" as="geometry"/>
                </mxCell>
                <mxCell id="12" style="edgeStyle=none;html=1;exitX=0.5;exitY=1;exitDx=0;exitDy=0;" edge="1" parent="WIyWlLk6GJQsqaUBKTNV-1" source="11" target="13">
                    <mxGeometry relative="1" as="geometry">
                        <mxPoint x="223" y="190" as="targetPoint"/>
                    </mxGeometry>
                </mxCell>
                <UserObject label="update share Excel" link="https://ainsp.sharepoint.com/:x:/r/sites/ITTeam/_layouts/15/doc2.aspx?sourcedoc=%7B51D5F657-60B8-40FD-BA66-24D1B1038D02%7D&amp;file=Release-Management.xlsx&amp;action=default&amp;mobileredirect=true&amp;cid=d3230fc7-dc86-4ffa-9802-c50024e59588&amp;isSPOFile=1" id="11">
                    <mxCell style="fontStyle=4;rounded=1;overflow=hidden;spacing=10;fillColor=#008a00;strokeColor=#005700;arcSize=15;fontColor=#ffffff;" vertex="1" parent="WIyWlLk6GJQsqaUBKTNV-1">
                        <mxGeometry x="160" y="100" width="125" height="40" as="geometry"/>
                    </mxCell>
                </UserObject>
                <mxCell id="41" style="edgeStyle=none;html=1;exitX=0.5;exitY=1;exitDx=0;exitDy=0;entryX=0.5;entryY=0;entryDx=0;entryDy=0;" edge="1" parent="WIyWlLk6GJQsqaUBKTNV-1" source="13" target="19">
                    <mxGeometry relative="1" as="geometry"/>
                </mxCell>
                <UserObject label="asiainspection  github" linkTarget="_blank" link="https://github.com/asiainspection" id="13">
                    <mxCell style="fontColor=#ffffff;fontStyle=4;rounded=1;overflow=hidden;spacing=10;fillColor=#1ba1e2;strokeColor=#006EAF;" vertex="1" parent="WIyWlLk6GJQsqaUBKTNV-1">
                        <mxGeometry x="156.25" y="190" width="132.5" height="40" as="geometry"/>
                    </mxCell>
                </UserObject>
                <mxCell id="14" value="update dev version and create release branch" style="text;html=1;resizable=0;autosize=1;align=center;verticalAlign=middle;points=[];fillColor=#1ba1e2;strokeColor=#006EAF;rounded=0;fontColor=#ffffff;" vertex="1" parent="WIyWlLk6GJQsqaUBKTNV-1">
                    <mxGeometry x="230" y="150" width="260" height="20" as="geometry"/>
                </mxCell>
                <mxCell id="16" value="" style="shape=curlyBracket;whiteSpace=wrap;html=1;rounded=1;" vertex="1" parent="WIyWlLk6GJQsqaUBKTNV-1">
                    <mxGeometry x="130" y="280" width="20" height="270" as="geometry"/>
                </mxCell>
                <mxCell id="17" value="Monday" style="text;html=1;align=center;verticalAlign=middle;resizable=0;points=[];autosize=1;strokeColor=none;" vertex="1" parent="WIyWlLk6GJQsqaUBKTNV-1">
                    <mxGeometry x="75" y="405" width="60" height="20" as="geometry"/>
                </mxCell>
                <mxCell id="18" value="Friday&lt;br&gt;" style="text;html=1;align=center;verticalAlign=middle;resizable=0;points=[];autosize=1;strokeColor=none;" vertex="1" parent="WIyWlLk6GJQsqaUBKTNV-1">
                    <mxGeometry x="80" y="120" width="50" height="20" as="geometry"/>
                </mxCell>
                <mxCell id="21" style="edgeStyle=none;html=1;exitX=0.5;exitY=1;exitDx=0;exitDy=0;entryX=0.5;entryY=0;entryDx=0;entryDy=0;" edge="1" parent="WIyWlLk6GJQsqaUBKTNV-1" source="19" target="20">
                    <mxGeometry relative="1" as="geometry"/>
                </mxCell>
                <UserObject label="Jenkins" linkTarget="_blank" link="https://devops.qima.com/" id="19">
                    <mxCell style="fontColor=#ffffff;fontStyle=4;rounded=1;overflow=hidden;spacing=10;fillColor=#008a00;strokeColor=#005700;" vertex="1" parent="WIyWlLk6GJQsqaUBKTNV-1">
                        <mxGeometry x="180" y="260" width="85" height="40" as="geometry"/>
                    </mxCell>
                </UserObject>
                <mxCell id="25" style="edgeStyle=none;html=1;exitX=0.5;exitY=1;exitDx=0;exitDy=0;entryX=0.5;entryY=0;entryDx=0;entryDy=0;" edge="1" parent="WIyWlLk6GJQsqaUBKTNV-1" source="20" target="24">
                    <mxGeometry relative="1" as="geometry">
                        <mxPoint x="227" y="410" as="targetPoint"/>
                    </mxGeometry>
                </mxCell>
                <mxCell id="20" value="New PP Env" style="whiteSpace=wrap;html=1;fillColor=#008a00;strokeColor=#005700;fontColor=#ffffff;" vertex="1" parent="WIyWlLk6GJQsqaUBKTNV-1">
                    <mxGeometry x="162.5" y="345" width="120" height="40" as="geometry"/>
                </mxCell>
                <mxCell id="22" value="build and deploy based on release branch" style="text;html=1;align=center;verticalAlign=middle;resizable=0;points=[];autosize=1;strokeColor=#005700;fillColor=#008a00;fontColor=#ffffff;" vertex="1" parent="WIyWlLk6GJQsqaUBKTNV-1">
                    <mxGeometry x="230" y="310" width="240" height="20" as="geometry"/>
                </mxCell>
                <mxCell id="27" style="edgeStyle=none;html=1;" edge="1" parent="WIyWlLk6GJQsqaUBKTNV-1" source="24">
                    <mxGeometry relative="1" as="geometry">
                        <mxPoint x="210" y="430" as="targetPoint"/>
                    </mxGeometry>
                </mxCell>
                <mxCell id="32" style="edgeStyle=none;html=1;exitX=0.5;exitY=1;exitDx=0;exitDy=0;" edge="1" parent="WIyWlLk6GJQsqaUBKTNV-1" source="24" target="31">
                    <mxGeometry relative="1" as="geometry"/>
                </mxCell>
                <mxCell id="24" value="fix issue on release" style="whiteSpace=wrap;html=1;fillColor=#1ba1e2;strokeColor=#006EAF;fontColor=#ffffff;" vertex="1" parent="WIyWlLk6GJQsqaUBKTNV-1">
                    <mxGeometry x="162.5" y="440" width="120" height="40" as="geometry"/>
                </mxCell>
                <mxCell id="26" value="Test if all ticket done" style="text;html=1;align=center;verticalAlign=middle;resizable=0;points=[];autosize=1;strokeColor=#005700;fillColor=#008a00;fontColor=#ffffff;" vertex="1" parent="WIyWlLk6GJQsqaUBKTNV-1">
                    <mxGeometry x="230" y="400" width="120" height="20" as="geometry"/>
                </mxCell>
                <mxCell id="30" value="merge release into dev and master" style="text;html=1;align=center;verticalAlign=middle;resizable=0;points=[];autosize=1;strokeColor=#006EAF;fillColor=#1ba1e2;fontColor=#ffffff;" vertex="1" parent="WIyWlLk6GJQsqaUBKTNV-1">
                    <mxGeometry x="230" y="500" width="200" height="20" as="geometry"/>
                </mxCell>
                <mxCell id="42" style="edgeStyle=none;html=1;exitX=0.5;exitY=1;exitDx=0;exitDy=0;entryX=0.5;entryY=0;entryDx=0;entryDy=0;" edge="1" parent="WIyWlLk6GJQsqaUBKTNV-1" source="31" target="37">
                    <mxGeometry relative="1" as="geometry"/>
                </mxCell>
                <UserObject label="asiainspection  github" linkTarget="_blank" link="https://github.com/asiainspection" id="31">
                    <mxCell style="fontColor=#ffffff;fontStyle=4;rounded=1;overflow=hidden;spacing=10;fillColor=#1ba1e2;strokeColor=#006EAF;" vertex="1" parent="WIyWlLk6GJQsqaUBKTNV-1">
                        <mxGeometry x="156.25" y="530" width="132.5" height="40" as="geometry"/>
                    </mxCell>
                </UserObject>
                <mxCell id="33" value="" style="shape=curlyBracket;whiteSpace=wrap;html=1;rounded=1;" vertex="1" parent="WIyWlLk6GJQsqaUBKTNV-1">
                    <mxGeometry x="130" y="625" width="20" height="100" as="geometry"/>
                </mxCell>
                <mxCell id="34" value="Tuesday" style="text;html=1;align=center;verticalAlign=middle;resizable=0;points=[];autosize=1;strokeColor=none;" vertex="1" parent="WIyWlLk6GJQsqaUBKTNV-1">
                    <mxGeometry x="70" y="675" width="60" height="20" as="geometry"/>
                </mxCell>
                <mxCell id="39" style="edgeStyle=none;html=1;exitX=0.5;exitY=1;exitDx=0;exitDy=0;" edge="1" parent="WIyWlLk6GJQsqaUBKTNV-1" source="37" target="38">
                    <mxGeometry relative="1" as="geometry"/>
                </mxCell>
                <UserObject label="Jenkins" linkTarget="_blank" link="https://devops.qima.com/" id="37">
                    <mxCell style="fontColor=#ffffff;fontStyle=4;rounded=1;overflow=hidden;spacing=10;fillColor=#008a00;strokeColor=#005700;" vertex="1" parent="WIyWlLk6GJQsqaUBKTNV-1">
                        <mxGeometry x="180" y="610" width="85" height="40" as="geometry"/>
                    </mxCell>
                </UserObject>
                <mxCell id="38" value="New Pro Env" style="whiteSpace=wrap;html=1;fillColor=#008a00;strokeColor=#005700;fontColor=#ffffff;" vertex="1" parent="WIyWlLk6GJQsqaUBKTNV-1">
                    <mxGeometry x="162.5" y="695" width="120" height="40" as="geometry"/>
                </mxCell>
                <mxCell id="40" value="build and deploy based on master" style="text;html=1;align=center;verticalAlign=middle;resizable=0;points=[];autosize=1;strokeColor=#005700;fillColor=#008a00;fontColor=#ffffff;" vertex="1" parent="WIyWlLk6GJQsqaUBKTNV-1">
                    <mxGeometry x="230" y="665" width="200" height="20" as="geometry"/>
                </mxCell>
            </root>
        </mxGraphModel>
    </diagram>
</mxfile>